# xmcd CD database file
#
# Track frame offsets:
#	150
#	13927
#	27347
#	41321
#	55744
#	70652
#	85257
#	99001
#	112210
#	126834
#	140919
#	152347
#	166359
#	180323
#	194173
#	207682
#	221538
#	236148
#	250423
#	264889
#
# Disc length: 3716 seconds
#
# Revision: 0
# Processed by: cddbd v1.4PL0 Copyright (c) Steve Scherf et al.
# Submitted via: CDex 1.50beta9
#
DISCID=1f0e8214
DTITLE=Doris Day - At Her Best [CD2 of 2)
DYEAR=1900
DGENRE=Jazz
TTITLE0=Let's Be Buddies
TTITLE1=Till the End of Time
TTITLE2=Broome Street Rag
TTITLE3=I'd Rather Be With You
TTITLE4=It Could Happen To You
TTITLE5=The Whole World Is Singing My Song
TTITLE6=You Won't Be Satisfied
TTITLE7=My Number One Dream Come True
TTITLE8=You Should Have Told Me
TTITLE9=A Red Kiss On a Blue Letter
TTITLE10=I Got the Sun in the Morning
TTITLE11=In the Moon Mist
TTITLE12=Day By Day
TTITLE13=I'll Always Be With You
TTITLE14=Booglie Wooglie Piggy
TTITLE15=Between Friends
TTITLE16='Tain't Me
TTITLE17=He's Home For a Little While
TTITLE18=Easy As Pie
TTITLE19=The Christmas Song
EXTD=
EXTT0=
EXTT1=
EXTT2=
EXTT3=
EXTT4=
EXTT5=
EXTT6=
EXTT7=
EXTT8=
EXTT9=
EXTT10=
EXTT11=
EXTT12=
EXTT13=
EXTT14=
EXTT15=
EXTT16=
EXTT17=
EXTT18=
EXTT19=
PLAYORDER=
